<svg width="20" height="20" viewBox="0 0 20 20" fill="none" xmlns="http://www.w3.org/2000/svg">
<mask id="mask0_13_293" style="mask-type:luminance" maskUnits="userSpaceOnUse" x="0" y="0" width="20" height="20">
<path d="M19.7674 8.18182H10.2326V12.0455H15.7209C15.2093 14.5 13.0698 15.9091 10.2326 15.9091C6.88372 15.9091 4.18605 13.2727 4.18605 10C4.18605 6.72727 6.88372 4.09091 10.2326 4.09091C11.6744 4.09091 12.9767 4.59091 14 5.40909L16.9767 2.5C15.1628 0.954545 12.8372 0 10.2326 0C4.55814 0 0 4.45455 0 10C0 15.5455 4.55814 20 10.2326 20C15.3488 20 20 16.3636 20 10C20 9.40909 19.907 8.77273 19.7674 8.18182Z" fill="white"/>
</mask>
<g mask="url(#mask0_13_293)">
<path d="M-0.930176 15.9091V4.09088L6.9768 9.99997L-0.930176 15.9091Z" fill="#FBBC05"/>
</g>
<mask id="mask1_13_293" style="mask-type:luminance" maskUnits="userSpaceOnUse" x="0" y="0" width="20" height="20">
<path d="M19.7674 8.18182H10.2326V12.0455H15.7209C15.2093 14.5 13.0698 15.9091 10.2326 15.9091C6.88372 15.9091 4.18605 13.2727 4.18605 10C4.18605 6.72727 6.88372 4.09091 10.2326 4.09091C11.6744 4.09091 12.9767 4.59091 14 5.40909L16.9767 2.5C15.1628 0.954545 12.8372 0 10.2326 0C4.55814 0 0 4.45455 0 10C0 15.5455 4.55814 20 10.2326 20C15.3488 20 20 16.3636 20 10C20 9.40909 19.907 8.77273 19.7674 8.18182Z" fill="white"/>
</mask>
<g mask="url(#mask1_13_293)">
<path d="M-0.930176 4.09088L6.9768 9.99997L10.2326 7.22724L21.3954 5.45452V-0.909119H-0.930176V4.09088Z" fill="#EA4335"/>
</g>
<mask id="mask2_13_293" style="mask-type:luminance" maskUnits="userSpaceOnUse" x="0" y="0" width="20" height="20">
<path d="M19.7674 8.18182H10.2326V12.0455H15.7209C15.2093 14.5 13.0698 15.9091 10.2326 15.9091C6.88372 15.9091 4.18605 13.2727 4.18605 10C4.18605 6.72727 6.88372 4.09091 10.2326 4.09091C11.6744 4.09091 12.9767 4.59091 14 5.40909L16.9767 2.5C15.1628 0.954545 12.8372 0 10.2326 0C4.55814 0 0 4.45455 0 10C0 15.5455 4.55814 20 10.2326 20C15.3488 20 20 16.3636 20 10C20 9.40909 19.907 8.77273 19.7674 8.18182Z" fill="white"/>
</mask>
<g mask="url(#mask2_13_293)">
<path d="M-0.930176 15.9091L13.0233 5.45452L16.6977 5.90906L21.3954 -0.909119V20.9091H-0.930176V15.9091Z" fill="#34A853"/>
</g>
<mask id="mask3_13_293" style="mask-type:luminance" maskUnits="userSpaceOnUse" x="0" y="0" width="20" height="20">
<path d="M19.7674 8.18182H10.2326V12.0455H15.7209C15.2093 14.5 13.0698 15.9091 10.2326 15.9091C6.88372 15.9091 4.18605 13.2727 4.18605 10C4.18605 6.72727 6.88372 4.09091 10.2326 4.09091C11.6744 4.09091 12.9767 4.59091 14 5.40909L16.9767 2.5C15.1628 0.954545 12.8372 0 10.2326 0C4.55814 0 0 4.45455 0 10C0 15.5455 4.55814 20 10.2326 20C15.3488 20 20 16.3636 20 10C20 9.40909 19.907 8.77273 19.7674 8.18182Z" fill="white"/>
</mask>
<g mask="url(#mask3_13_293)">
<path d="M21.3954 20.9091L6.9768 9.99997L5.11633 8.63634L21.3954 4.09088V20.9091Z" fill="#4285F4"/>
</g>
</svg>
