<svg xmlns="http://www.w3.org/2000/svg" xmlns:xlink="http://www.w3.org/1999/xlink" width="500" zoomAndPan="magnify" viewBox="0 0 375 374.999991" height="500" preserveAspectRatio="xMidYMid meet" version="1.0"><defs><clipPath id="4320c1d759"><path d="M 14.625 0 L 360.375 0 C 372.800781 0 382.875 10.074219 382.875 22.5 L 382.875 355.679688 C 382.875 368.105469 372.800781 378.179688 360.375 378.179688 L 14.625 378.179688 C 2.199219 378.179688 -7.875 368.105469 -7.875 355.679688 L -7.875 22.5 C -7.875 10.074219 2.199219 0 14.625 0 Z M 14.625 0 " clip-rule="nonzero"/></clipPath><clipPath id="0fd6be67c6"><path d="M 0 167.859375 L 71.480469 167.859375 L 71.480469 230.964844 L 0 230.964844 Z M 0 167.859375 " clip-rule="nonzero"/></clipPath><clipPath id="5da8f5579f"><path d="M 276.007812 167.859375 L 375 167.859375 L 375 230.964844 L 276.007812 230.964844 Z M 276.007812 167.859375 " clip-rule="nonzero"/></clipPath><clipPath id="7950e6ac0b"><path d="M 49.835938 52.46875 L 323.082031 52.46875 L 323.082031 325.714844 L 49.835938 325.714844 Z M 49.835938 52.46875 " clip-rule="nonzero"/></clipPath><clipPath id="c654584df2"><path d="M 186.457031 52.46875 C 111.003906 52.46875 49.835938 113.636719 49.835938 189.089844 C 49.835938 264.546875 111.003906 325.714844 186.457031 325.714844 C 261.914062 325.714844 323.082031 264.546875 323.082031 189.089844 C 323.082031 113.636719 261.914062 52.46875 186.457031 52.46875 Z M 186.457031 52.46875 " clip-rule="nonzero"/></clipPath><clipPath id="29fde07b0b"><path d="M 84.242188 86.875 L 288.675781 86.875 L 288.675781 291.308594 L 84.242188 291.308594 Z M 84.242188 86.875 " clip-rule="nonzero"/></clipPath><clipPath id="7dddc8a7ca"><path d="M 186.457031 86.875 C 130.003906 86.875 84.242188 132.636719 84.242188 189.089844 C 84.242188 245.542969 130.003906 291.308594 186.457031 291.308594 C 242.910156 291.308594 288.675781 245.542969 288.675781 189.089844 C 288.675781 132.636719 242.910156 86.875 186.457031 86.875 Z M 186.457031 86.875 " clip-rule="nonzero"/></clipPath><clipPath id="3b21a17a4f"><path d="M 84.242188 189.160156 L 288.8125 189.160156 L 288.8125 291.746094 L 84.242188 291.746094 Z M 84.242188 189.160156 " clip-rule="nonzero"/></clipPath></defs><g clip-path="url(#4320c1d759)"><rect x="-37.5" width="450" fill="#ffde59" y="-37.499999" height="449.999989" fill-opacity="1"/></g><g clip-path="url(#0fd6be67c6)"><path fill="#000000" d="M -7.875 167.859375 L 71.480469 167.859375 L 71.480469 230.964844 L -7.875 230.964844 Z M -7.875 167.859375 " fill-opacity="1" fill-rule="nonzero"/></g><g clip-path="url(#5da8f5579f)"><path fill="#000000" d="M 276.007812 167.859375 L 382.875 167.859375 L 382.875 230.964844 L 276.007812 230.964844 Z M 276.007812 167.859375 " fill-opacity="1" fill-rule="nonzero"/></g><g clip-path="url(#7950e6ac0b)"><g clip-path="url(#c654584df2)"><path fill="#9a9e92" d="M 49.835938 52.46875 L 323.082031 52.46875 L 323.082031 325.714844 L 49.835938 325.714844 Z M 49.835938 52.46875 " fill-opacity="1" fill-rule="nonzero"/></g></g><g clip-path="url(#29fde07b0b)"><g clip-path="url(#7dddc8a7ca)"><path fill="#ffde59" d="M 84.242188 86.875 L 288.675781 86.875 L 288.675781 291.308594 L 84.242188 291.308594 Z M 84.242188 86.875 " fill-opacity="1" fill-rule="nonzero"/></g></g><g clip-path="url(#3b21a17a4f)"><path fill="#ffffff" d="M 288.734375 189.160156 L 288.734375 189.644531 C 288.734375 203.425781 286.03125 216.796875 280.703125 229.386719 C 275.554688 241.542969 268.183594 252.460938 258.800781 261.835938 C 249.414062 271.214844 238.484375 278.574219 226.3125 283.71875 C 213.710938 289.042969 200.328125 291.742188 186.527344 291.742188 C 172.730469 291.742188 159.347656 289.042969 146.746094 283.71875 C 134.574219 278.574219 123.644531 271.214844 114.257812 261.835938 C 104.871094 252.460938 97.503906 241.542969 92.355469 229.386719 C 87.027344 216.796875 84.324219 203.425781 84.324219 189.644531 L 84.324219 189.160156 Z M 288.734375 189.160156 " fill-opacity="1" fill-rule="nonzero"/></g></svg>